<?xml version="1.0" encoding="UTF-8"?><svg id="Layer_1" xmlns="http://www.w3.org/2000/svg" viewBox="0 0 240 24"><path d="M19.89,17.86c-2.02,3.71-4.58,5.66-8.83,5.66C4.82,23.52,.15,18.72,.15,12S4.94,.48,11.22,.48c5.86,0,9.31,2.94,10.37,7.55l-2.08,.77c-1.22-4.35-3.87-6.27-8.32-6.27C6.48,2.53,2.51,6.24,2.51,12s3.23,9.47,8.93,9.47c4.93,0,7.46-4.48,7.71-7.52H8.43v-2.05h13.38v11.3h-1.92v-5.34Z"/><path d="M31.09,23.2h-2.24V.8h2.24V23.2Z"/><path d="M38.77,.8h2.24V21.15h14.01v2.05h-16.25V.8Z"/><path d="M59.6,.8h2.24V21.15h14.01v2.05h-16.25V.8Z"/><path d="M82.67,23.2h-2.24V.8h2.24V23.2Z"/><path d="M90.61,23.2h-2.37L97.81,.8h3.14l9.57,22.4h-2.37l-2.53-6.02h-12.48l-2.53,6.02ZM99.38,2.4l-5.38,12.73h10.75l-5.38-12.73Z"/><path d="M117.36,2.24V23.2h-2.24V.8h3.81l13.12,20.96V.8h2.24V23.2h-3.81L117.36,2.24Z"/><path d="M152.53,.8h2.24V21.15h14.01v2.05h-16.25V.8Z"/><path d="M174.61,23.2h-2.37L181.81,.8h3.14l9.57,22.4h-2.37l-2.53-6.02h-12.48l-2.53,6.02Zm8.77-20.8l-5.38,12.73h10.75l-5.38-12.73Z"/><path d="M197.65,.8h2.24V13.86c0,4.77,2.37,7.62,6.88,7.62s6.88-2.85,6.88-7.62V.8h2.24V14.24c0,5.18-3.26,9.28-9.12,9.28s-9.12-4.1-9.12-9.28V.8Z"/><path d="M222.42,23.2V.8h9.7c4.42,0,6.94,2.46,6.94,5.7,0,2.27-1.41,4.26-3.17,5.12,2.4,1.02,3.97,2.62,3.97,5.57,0,3.46-3.04,6.02-7.07,6.02h-10.37Zm2.24-12.48h7.87c2.43,0,4.35-1.38,4.35-3.94s-2.11-3.94-4.35-3.94h-7.87v7.87Zm0,10.43h8.1c2.72,0,4.77-1.5,4.77-4.22s-2.05-4.29-4.77-4.29h-8.1v8.51Z"/></svg>